Coordinates
version=1
nRows=32
nColumns=12
inDegrees=yes

Units are S.I. units (second, meters, Newtons, ...)
Angles are in degrees

endheader
time	SC_y	SC_z	SC_x	AC_y	AC_z	AC_x	GH_y	GH_z	GH_yy	EL_x	PS_y
       0.0              -16.85          3.074          47.83          50.38         -4.933         -19.27         -67.82           47.0         -140.8          115.3          126.1
   0.01244              -16.85          3.078          47.83          50.38         -4.933         -19.27         -67.79           47.0         -140.8          115.3          126.1
   0.02489              -16.86          3.081          47.83          50.37         -4.934         -19.27         -67.76           47.0         -140.7          115.3          126.1
   0.03733              -16.86          3.085          47.83          50.37         -4.934         -19.26         -67.72           47.0         -140.7          115.3          126.1
   0.04978              -16.87          3.089          47.83          50.37         -4.935         -19.26         -67.68           47.0         -140.6          115.2          126.1
   0.06222              -16.87          3.093          47.83          50.37         -4.935         -19.26         -67.64           47.0         -140.6          115.2          126.1
   0.07467              -16.88          3.098          47.83          50.37         -4.936         -19.26          -67.6          47.01         -140.5          115.2          126.1
   0.08711              -16.89          3.103          47.84          50.36         -4.936         -19.26         -67.55          47.01         -140.4          115.2          126.1
   0.09956               -16.9          3.108          47.84          50.36         -4.937         -19.26         -67.51          47.01         -140.4          115.2          126.1
     0.112               -16.9          3.114          47.84          50.36         -4.937         -19.26         -67.45          47.01         -140.3          115.2          126.1
    0.1244              -16.91           3.12          47.84          50.35         -4.938         -19.26          -67.4          47.01         -140.2          115.1          126.1
    0.1369              -16.92          3.126          47.84          50.35         -4.939         -19.25         -67.33          47.01         -140.1          115.1          126.2
    0.1493              -16.93          3.133          47.84          50.35         -4.939         -19.25         -67.27          47.02         -140.0          115.1          126.2
    0.1618              -16.94          3.141          47.84          50.34          -4.94         -19.25          -67.2          47.02         -139.9          115.1          126.2
    0.1742              -16.95          3.149          47.85          50.34         -4.941         -19.25         -67.12          47.02         -139.8          115.0          126.2
    0.1867              -16.97          3.158          47.85          50.33         -4.942         -19.25         -67.04          47.03         -139.7          115.0          126.2
    0.1991              -16.98          3.167          47.85          50.33         -4.943         -19.24         -66.95          47.03         -139.6          115.0          126.2
    0.2116               -17.0          3.178          47.85          50.32         -4.944         -19.24         -66.85          47.03         -139.4          114.9          126.2
     0.224              -17.01          3.189          47.86          50.32         -4.946         -19.24         -66.74          47.04         -139.3          114.9          126.2
    0.2364              -17.03          3.202          47.86          50.31         -4.947         -19.23         -66.62          47.04         -139.1          114.9          126.2
    0.2489              -17.05          3.216          47.86           50.3         -4.948         -19.23         -66.49          47.04         -138.9          114.8          126.3
    0.2613              -17.07          3.231          47.86           50.3          -4.95         -19.23         -66.35          47.05         -138.7          114.8          126.3
    0.2738               -17.1          3.248          47.87          50.29         -4.952         -19.22         -66.19          47.06         -138.4          114.7          126.3
    0.2862              -17.12          3.266          47.87          50.28         -4.954         -19.22         -66.02          47.06         -138.2          114.6          126.3
    0.2987              -17.15          3.287          47.88          50.27         -4.956         -19.21         -65.83          47.07         -137.9          114.6          126.4
    0.3111              -17.19           3.31          47.88          50.26         -4.959         -19.21         -65.61          47.08         -137.6          114.5          126.4
    0.3236              -17.22          3.335          47.89          50.24         -4.962          -19.2         -65.37          47.08         -137.2          114.4          126.4
     0.336              -17.27          3.364           47.9          50.23         -4.965         -19.19          -65.1          47.09         -136.8          114.3          126.5
    0.3484              -17.31          3.397           47.9          50.21         -4.968         -19.18         -64.79           47.1         -136.4          114.2          126.5
    0.3609              -17.37          3.434          47.91          50.19         -4.972         -19.17         -64.44          47.12         -135.9          114.1          126.5
    0.3733              -17.43          3.477          47.92          50.17         -4.977         -19.16         -64.04          47.13         -135.3          113.9          126.6
    0.3858               -17.5          3.526          47.93          50.15         -4.982         -19.15         -63.58          47.15         -134.6          113.8          126.7
